<svg version="1.1" id="Layer_1" xmlns="http://www.w3.org/2000/svg" xmlns:xlink="http://www.w3.org/1999/xlink" x="0px" y="0px"
	 width="100%" viewBox="0 0 496 496" enable-background="new 0 0 496 496" xml:space="preserve">
<path fill="#3F9D2C" opacity="1.000000" stroke="none" 
	d="
M379.431793,258.376007 
	C372.942627,270.814728 366.725922,282.979523 359.056549,294.323700 
	C356.240845,298.488617 353.149261,302.431213 349.123688,305.461823 
	C347.385345,306.770508 346.486755,308.152100 346.149597,310.307617 
	C345.401917,315.087677 342.789093,318.575104 338.138000,320.313843 
	C335.992859,321.115753 334.565552,322.218567 334.176208,324.833435 
	C333.523529,329.217041 330.634613,332.098969 326.320526,332.839844 
	C322.947205,333.419159 321.574921,334.980591 321.060822,338.277985 
	C320.637115,340.995331 318.681946,343.455933 316.036530,344.052521 
	C311.581848,345.057098 308.667206,347.865692 305.365021,350.652588 
	C300.488129,354.768463 294.398468,354.955597 288.270966,353.873993 
	C278.702454,352.184967 270.091522,347.882568 260.157593,343.343628 
	C266.676239,350.206909 271.871490,356.440582 273.623657,364.725586 
	C274.448151,368.624176 275.355255,372.526978 275.207886,376.542877 
	C274.897125,385.008820 269.262604,389.226471 261.059540,386.859100 
	C257.980164,385.970459 255.183548,384.990234 251.880478,386.006439 
	C250.475708,386.438599 248.526550,385.853760 247.064545,385.197174 
	C243.574097,383.629761 239.971832,382.648529 236.276321,381.664917 
	C228.543900,379.606750 227.825287,372.499847 226.777603,366.160065 
	C225.245865,356.891144 226.018921,347.598785 227.489349,338.353607 
	C227.743958,336.752808 227.525406,335.076782 227.525406,333.389465 
	C225.011887,332.919647 223.708450,334.757080 222.128418,335.765289 
	C204.859177,346.784424 186.674637,355.558289 166.218506,358.829315 
	C158.290848,360.096985 150.327820,360.431732 142.385239,359.078613 
	C135.713608,357.942078 133.153854,355.048828 132.827606,348.381622 
	C132.724701,346.278748 132.357773,344.535339 130.691116,343.060547 
	C127.137711,339.916229 126.014435,335.771515 126.823380,331.263123 
	C127.288483,328.670990 126.761345,326.900543 124.873917,325.077789 
	C122.480476,322.766327 120.525337,320.050049 119.421448,316.806763 
	C116.888718,309.365356 119.527725,304.225952 126.932610,301.545288 
	C139.046829,297.159760 151.170639,298.372681 163.305984,301.175598 
	C168.616913,302.402222 173.854584,303.946014 179.910873,305.554352 
	C170.002930,299.778900 160.336044,295.067963 151.734055,288.658630 
	C142.000366,281.406067 132.376999,273.522888 130.608643,260.749237 
	C129.564621,253.207886 126.466171,246.070236 126.671478,238.363831 
	C126.702499,237.199692 126.342125,235.730255 126.907059,234.922714 
	C130.780319,229.386215 129.625031,223.458130 128.738922,217.459625 
	C128.504150,215.870346 128.433670,213.755798 129.272919,212.594284 
	C133.231094,207.116394 134.250000,201.101761 133.731583,194.552780 
	C133.623169,193.183197 134.154678,191.308701 135.096329,190.387772 
	C139.498093,186.083008 139.604446,180.391495 140.750046,174.945831 
	C142.444046,166.893311 146.107239,159.546738 149.847473,152.299896 
	C155.650162,141.056992 161.847107,130.004044 164.586288,117.470749 
	C164.711304,116.898743 165.064743,116.376663 165.733627,114.900162 
	C167.214096,119.340576 168.350677,122.933678 169.606201,126.484726 
	C176.399490,145.698318 187.313004,162.613312 199.030350,179.073532 
	C208.590851,192.503830 219.242203,205.224045 227.162048,219.734726 
	C239.820755,242.927933 244.893250,267.566040 239.704147,293.873901 
	C238.614777,299.396851 237.761993,304.966492 236.800766,310.511353 
	C237.934967,311.233368 238.336380,310.224640 238.756790,309.699005 
	C256.012421,288.123627 279.139191,276.535248 305.534698,270.692657 
	C320.125031,267.463043 334.850433,264.844604 349.445190,261.633759 
	C361.247437,259.037323 372.351349,254.617508 382.168732,247.352066 
	C382.798553,246.885956 383.582428,246.627975 384.921326,245.961029 
	C384.039978,250.850479 381.286377,254.226288 379.431793,258.376007 
M179.910858,279.204437 
	C179.449982,276.992188 179.911575,274.931396 180.825012,272.902557 
	C181.325333,271.791351 181.521805,270.503754 180.156982,269.869385 
	C178.599716,269.145569 177.563904,270.200256 176.963974,271.436157 
	C175.102814,275.270325 177.431747,277.698273 179.567139,280.563446 
	C177.120514,281.696838 174.094589,282.075562 174.165939,285.941376 
	C174.246216,290.289825 177.750565,295.077271 183.043213,297.484131 
	C177.533493,290.315277 177.369766,287.946808 182.113052,283.751587 
	C181.983856,282.183624 181.164337,281.002838 179.910858,279.204437 
M266.494995,363.442963 
	C266.230988,363.149506 266.106598,362.317322 265.543732,363.181366 
	C265.472168,363.291199 265.531525,363.511688 265.575867,363.667969 
	C267.322021,369.822357 266.399353,374.919373 259.481628,377.599731 
	C263.892822,379.789062 266.880646,378.281219 267.528870,373.819427 
	C268.008759,370.515991 267.611755,367.215485 266.494995,363.442963 
z"/>
</svg>
